# File created by Blade
# Date/Time:  Thu Jan 22 16:10:22 2015
#---------------------------------------------------------
:version 1.10
:name HOM
:units
  mass 1.0
  length 1.000000
  angle deg
:documentation
     Acclaim Skeleton File
:root
   axis xyz
   order TX TY TZ RX RY RZ
   position 0.000000 0.000000 0.000000
   orientation 0 0 0
:bonedata
   begin
      id 1
      name RightUpLeg_dum
      direction -1.000000 0.000000 0.000000
      length 3.766986
      axis 0.0 0.0 0.0 xyz
   end
   begin
      id 2
      name LeftUpLeg_dum
      direction 1.000000 0.000000 0.000000
      length 3.766986
      axis 0.0 0.0 0.0 xyz
   end
   begin
      id 3
      name Spine_dum
      direction 0.000000 1.000000 0.000000
      length 7.779697
      axis 0.0 0.0 0.0 xyz
   end
   begin
      id 4
      name RightUpLeg
      direction 0.000000 -1.000000 0.000000
      length 18.017682
      axis 0.0 0.0 0.0 xyz
      dof rx ry rz
   end
   begin
      id 5
      name RightLeg
      direction 0.000000 -1.000000 0.000000
      length 16.881075
      axis 0.0 0.0 0.0 xyz
      dof rx ry rz
   end
   begin
      id 6
      name RightFoot
      direction 0.000000 -0.258819 0.965926
      length 5.770812
      axis 15.0 0.0 0.0 xyz
      dof rx ry rz
   end
   begin
      id 7
      name RightToeBase
      direction 0.000000 0.000000 1.000000
      length 2.952750
      axis 0.0 0.0 0.0 xyz
      dof rx ry rz
   end
   begin
      id 8
      name LeftUpLeg
      direction 0.000000 -1.000000 0.000000
      length 18.017682
      axis 0.0 0.0 0.0 xyz
      dof rx ry rz
   end
   begin
      id 9
      name LeftLeg
      direction 0.000000 -1.000000 0.000000
      length 16.881075
      axis 0.0 0.0 0.0 xyz
      dof rx ry rz
   end
   begin
      id 10
      name LeftFoot
      direction 0.000000 -0.258819 0.965926
      length 5.770812
      axis 15.0 0.0 0.0 xyz
      dof rx ry rz
   end
   begin
      id 11
      name LeftToeBase
      direction 0.000000 0.000000 1.000000
      length 2.952750
      axis 0.0 0.0 0.0 xyz
      dof rx ry rz
   end
   begin
      id 12
      name Spine
      direction 0.000000 1.000000 0.000000
      length 0.000000
      axis 0.0 0.0 0.0 xyz
      dof rx ry rz
   end
   begin
      id 13
      name Spine_dum1
      direction 0.000000 1.000000 0.000000
      length 10.941760
      axis 0.0 0.0 0.0 xyz
   end
   begin
      id 14
      name Spine_dum2
      direction 0.000000 1.000000 0.000000
      length 10.941760
      axis 0.0 0.0 0.0 xyz
   end
   begin
      id 15
      name Spine_dum3
      direction 0.000000 1.000000 0.000000
      length 16.646042
      axis 0.0 0.0 0.0 xyz
   end
   begin
      id 16
      name RightShoulder
      direction -1.000000 0.000000 0.000000
      length 7.708937
      axis 0.0 0.0 90.0 xyz
      dof rx ry rz
   end
   begin
      id 17
      name RightArm
      direction -1.000000 0.000000 0.000000
      length 11.521345
      axis 0.0 0.0 90.0 xyz
      dof rx ry rz
   end
   begin
      id 18
      name RightForeArm
      direction -1.000000 0.000000 0.000000
      length 10.175898
      axis 0.0 0.0 90.0 xyz
      dof ry rz rx
   end
   begin
      id 19
      name RightHand
      direction -1.000000 0.000000 0.000000
      length 0.000000
      axis 0.0 0.0 90.0 xyz
      dof rx ry rz
   end
   begin
      id 20
      name RightHand_dum1
      direction -1.000000 0.000000 0.000000
      length 3.937000
      axis 0.0 0.0 90.0 xyz
   end
   begin
      id 21
      name RightHand_dum2
      direction 0.000000 0.000000 0.000000
      length 0.000000
      axis 0.0 0.0 90.0 xyz
   end
   begin
      id 22
      name RightHandThumb1
      direction 0.000000 0.000000 1.000000
      length 3.937000
      axis 0.0 0.0 90.0 xyz
      dof rx rz ry
   end
   begin
      id 23
      name LeftShoulder
      direction 1.000000 0.000000 0.000000
      length 7.708937
      axis 0.0 0.0 -90.0 xyz
      dof rx ry rz
   end
   begin
      id 24
      name LeftArm
      direction 1.000000 0.000000 0.000000
      length 11.521345
      axis 0.0 0.0 -90.0 xyz
      dof rx ry rz
   end
   begin
      id 25
      name LeftForeArm
      direction 1.000000 0.000000 0.000000
      length 10.175898
      axis 0.0 0.0 -90.0 xyz
      dof ry rz rx
   end
   begin
      id 26
      name LeftHand
      direction 1.000000 0.000000 0.000000
      length 0.000000
      axis 0.0 0.0 -90.0 xyz
      dof rx ry rz
   end
   begin
      id 27
      name LeftHand_dum1
      direction 1.000000 0.000000 0.000000
      length 3.937000
      axis 0.0 0.0 -90.0 xyz
   end
   begin
      id 28
      name LeftHand_dum2
      direction 0.000000 0.000000 0.000000
      length 0.000000
      axis 0.0 0.0 -90.0 xyz
   end
   begin
      id 29
      name LeftHandThumb1
      direction 0.000000 0.000000 1.000000
      length 3.937000
      axis 0.0 0.0 -90.0 xyz
      dof rx rz ry
   end
   begin
      id 30
      name Head
      direction 0.000000 1.000000 0.000000
      length 4.527550
      axis 0.0 0.0 0.0 xyz
      dof rx ry rz
   end
:hierarchy
   begin
      root RightUpLeg_dum LeftUpLeg_dum Spine_dum
      RightUpLeg_dum RightUpLeg
      LeftUpLeg_dum LeftUpLeg
      Spine_dum Spine
      RightUpLeg RightLeg
      RightLeg RightFoot
      RightFoot RightToeBase
      LeftUpLeg LeftLeg
      LeftLeg LeftFoot
      LeftFoot LeftToeBase
      Spine Spine_dum1 Spine_dum2 Spine_dum3
      Spine_dum1 RightShoulder
      Spine_dum2 LeftShoulder
      Spine_dum3 Head
      RightShoulder RightArm
      RightArm RightForeArm
      RightForeArm RightHand
      RightHand RightHand_dum1 RightHand_dum2
      RightHand_dum2 RightHandThumb1
      LeftShoulder LeftArm
      LeftArm LeftForeArm
      LeftForeArm LeftHand
      LeftHand LeftHand_dum1 LeftHand_dum2
      LeftHand_dum2 LeftHandThumb1
   end

# File created by Blade
# Date/Time:  Thu Jan 22 16:10:14 2015
# Frame Rate: 120.000 fps
#------------------------------------------------------
:FULLY-SPECIFIED
:DEGREES
439
root 0.350792 34.318206 3.021597 -1.186847 -5.937977 1.165869
RightUpLeg 4.471244 -9.109854 -23.934824
RightLeg -6.656494 -0.000000 0.000000
RightFoot -2.566903 -17.205312 31.003779
RightToeBase 15.433773 -0.000000 -0.000000
LeftUpLeg 9.222654 10.989422 23.703910
LeftLeg -2.691653 -0.000000 0.000000
LeftFoot -3.085600 9.301547 -35.095874
LeftToeBase 8.888875 -0.000000 -0.000000
Spine 9.474120 -5.538961 1.540640
RightShoulder -5.687314 -17.264834 -22.675865
RightArm 10.787600 24.523248 42.638154
RightForeArm 3.845735 -0.000000 29.545383
RightHand 3.587711 -0.000000 -5.187932
RightHandThumb1 -24.326973 -0.000000 -32.862282
LeftShoulder -27.915775 35.274786 9.993292
LeftArm 46.785163 -49.525571 -64.881156
LeftForeArm 29.121872 -0.000000 10.448698
LeftHand -19.121406 0.000000 0.580262
LeftHandThumb1 -26.253704 0.000000 33.147579
Head 1.919555 17.254217 -2.425788
440
root 0.313351 34.319964 3.011755 -1.080374 -5.953849 0.955898
RightUpLeg 4.387595 -9.105160 -23.648758
RightLeg -6.674435 -0.000000 0.000000
RightFoot -2.581491 -17.223094 31.007307
RightToeBase 15.468380 -0.000000 -0.000000
LeftUpLeg 9.100566 10.907538 23.938858
LeftLeg -2.624528 -0.000000 0.000000
LeftFoot -3.146288 9.414936 -35.156747
LeftToeBase 8.894293 -0.000000 -0.000000
Spine 9.509605 -5.615101 1.381501
RightShoulder -5.687315 -17.229251 -22.717560
RightArm 10.756670 24.767977 42.747907
RightForeArm 3.733242 0.000000 29.549273
RightHand 3.660682 0.000000 -5.167783
RightHandThumb1 -24.326973 -0.000000 -32.862282
LeftShoulder -27.989150 35.299701 9.946425
LeftArm 46.607309 -49.510872 -64.592164
LeftForeArm 29.099940 -0.000000 10.427521
LeftHand -19.182959 -0.000000 0.507334
LeftHandThumb1 -26.253704 0.000000 33.147579
Head 1.960265 17.461961 -2.554483
441
root 0.273314 34.321432 2.999266 -0.981790 -5.960599 0.707047
RightUpLeg 4.320948 -9.046854 -23.319546
RightLeg -6.703503 -0.000000 0.000000
RightFoot -2.598516 -17.298550 30.985603
RightToeBase 15.404401 -0.000000 -0.000000
LeftUpLeg 8.970651 10.826627 24.222858
LeftLeg -2.534507 -0.000000 0.000000
LeftFoot -3.203242 9.496759 -35.211006
LeftToeBase 8.860928 -0.000000 -0.000000
Spine 9.577008 -5.652245 1.253600
RightShoulder -5.727746 -17.225964 -22.746043
RightArm 10.663599 24.850645 42.757044
RightForeArm 3.802504 -0.000000 29.554202
RightHand 3.702744 0.000000 -5.117021
RightHandThumb1 -24.326973 -0.000000 -32.862282
LeftShoulder -27.986357 35.266518 9.993890
LeftArm 46.449567 -49.518520 -64.421913
LeftForeArm 29.129723 -0.000000 10.451677
LeftHand -19.232072 -0.000000 0.587216
LeftHandThumb1 -26.253704 0.000000 33.147579
Head 1.962604 17.640037 -2.679330
442
root 0.231127 34.322394 2.981015 -0.852842 -5.989283 0.460343
RightUpLeg 4.193008 -8.962290 -22.982331
RightLeg -6.705163 -0.000000 0.000000
RightFoot -2.648407 -17.338890 30.996149
RightToeBase 15.354076 -0.000000 -0.000000
LeftUpLeg 8.811502 10.772502 24.502145
LeftLeg -2.436453 -0.000000 0.000000
LeftFoot -3.265425 9.598578 -35.251338
LeftToeBase 8.870738 -0.000000 -0.000000
Spine 9.621854 -5.618399 1.108627
RightShoulder -5.816627 -17.248844 -22.739690
RightArm 10.579855 24.879492 42.722385
RightForeArm 3.981756 -0.000000 29.551706
RightHand 3.729795 -0.000000 -5.369011
RightHandThumb1 -24.326973 -0.000000 -32.862282
LeftShoulder -27.960458 35.270770 10.060280
LeftArm 46.331706 -49.480402 -64.241228
LeftForeArm 29.216539 -0.000000 10.434055
LeftHand -19.205736 -0.000000 0.732082
LeftHandThumb1 -26.253704 0.000000 33.147579
Head 1.963076 17.770498 -2.791730
443
root 0.185616 34.323737 2.964397 -0.735427 -5.976146 0.185848
RightUpLeg 4.116595 -8.895708 -22.618675
RightLeg -6.730270 -0.000000 0.000000
RightFoot -2.700046 -17.449975 31.024644
RightToeBase 15.435897 -0.000000 -0.000000
LeftUpLeg 8.645028 10.686384 24.814396
LeftLeg -2.327492 -0.000000 0.000000
LeftFoot -3.322429 9.666631 -35.292175
LeftToeBase 8.846621 -0.000000 -0.000000
Spine 9.675836 -5.685566 0.965602
RightShoulder -5.823151 -17.245480 -22.802438
RightArm 10.522204 24.975246 42.785046
RightForeArm 3.965412 -0.000000 29.489353
RightHand 3.638580 -0.000000 -5.614513
RightHandThumb1 -24.326973 -0.000000 -32.862282
LeftShoulder -27.983090 35.251625 10.097984
LeftArm 46.169552 -49.469500 -64.026374
LeftForeArm 29.305657 -0.000000 10.446413
LeftHand -19.115254 -0.000000 0.611693
LeftHandThumb1 -26.253704 0.000000 33.147579
Head 2.018984 17.970168 -2.862854
444
root 0.140349 34.325028 2.945274 -0.613064 -5.960271 -0.090833
RightUpLeg 4.023806 -8.822267 -22.252888
RightLeg -6.737342 -0.000000 0.000000
RightFoot -2.762580 -17.544557 31.027268
RightToeBase 15.422340 -0.000000 -0.000000
LeftUpLeg 8.473461 10.594143 25.130190
LeftLeg -2.231540 -0.000000 0.000000
LeftFoot -3.397880 9.750430 -35.376289
LeftToeBase 8.920354 -0.000000 -0.000000
Spine 9.740094 -5.709598 0.824566
RightShoulder -5.871109 -17.201304 -22.852733
RightArm 10.378508 25.071868 42.794226
RightForeArm 4.017940 -0.000000 29.490537
RightHand 3.597641 0.000000 -5.677674
RightHandThumb1 -24.326973 -0.000000 -32.862282
LeftShoulder -27.985629 35.257447 10.122770
LeftArm 46.049980 -49.431198 -63.794884
LeftForeArm 29.403933 -0.000000 10.422706
LeftHand -19.116189 -0.000000 0.663687
LeftHandThumb1 -26.253704 0.000000 33.147579
Head 2.032224 18.122727 -2.955984
445
root 0.093987 34.326448 2.923097 -0.479194 -5.930617 -0.371428
RightUpLeg 3.919678 -8.801057 -21.881942
RightLeg -6.744891 -0.000000 0.000000
RightFoot -2.806052 -17.588067 31.101136
RightToeBase 15.454346 -0.000000 -0.000000
LeftUpLeg 8.281930 10.520036 25.450879
LeftLeg -2.138988 -0.000000 0.000000
LeftFoot -3.429084 9.818434 -35.439870
LeftToeBase 8.900492 -0.000000 -0.000000
Spine 9.797526 -5.758945 0.666480
RightShoulder -5.901867 -17.251205 -22.906493
RightArm 10.309829 25.206070 42.831796
RightForeArm 4.124601 -0.000000 29.454631
RightHand 3.671144 0.000000 -5.801494
RightHandThumb1 -24.326973 -0.000000 -32.862282
LeftShoulder -27.952250 35.222358 10.188223
LeftArm 45.772941 -49.371255 -63.429832
LeftForeArm 29.451965 -0.000000 10.417633
LeftHand -19.139027 -0.000000 0.597661
LeftHandThumb1 -26.253704 0.000000 33.147579
Head 2.061876 18.317527 -3.046824
446
root 0.045988 34.327613 2.899007 -0.347119 -5.903494 -0.663813
RightUpLeg 3.807570 -8.778715 -21.495553
RightLeg -6.735859 -0.000000 0.000000
RightFoot -2.821773 -17.687581 31.036603
RightToeBase 15.410044 -0.000000 -0.000000
LeftUpLeg 8.099531 10.465703 25.790870
LeftLeg -2.056333 -0.000000 0.000000
LeftFoot -3.455771 9.868125 -35.505534
LeftToeBase 8.961177 -0.000000 -0.000000
Spine 9.871247 -5.806468 0.494406
RightShoulder -5.929469 -17.217874 -22.953592
RightArm 10.187549 25.341683 42.843726
RightForeArm 4.234855 -0.000000 29.388193
RightHand 3.782755 -0.000000 -5.823232
RightHandThumb1 -24.326973 -0.000000 -32.862282
LeftShoulder -27.973680 35.188642 10.229037
LeftArm 45.590170 -49.286423 -63.096105
LeftForeArm 29.490673 -0.000000 10.362663
LeftHand -18.990849 -0.000000 0.478686
LeftHandThumb1 -26.253704 0.000000 33.147579
Head 2.086632 18.500443 -3.102600
447
root -0.004053 34.329411 2.874639 -0.220022 -5.887879 -0.973193
RightUpLeg 3.693992 -8.715758 -21.085717
RightLeg -6.730342 -0.000000 0.000000
RightFoot -2.898837 -17.709053 31.105321
RightToeBase 15.337671 -0.000000 -0.000000
LeftUpLeg 7.927713 10.511063 26.162479
LeftLeg -1.969037 -0.000000 0.000000
LeftFoot -3.410413 9.858183 -35.499528
LeftToeBase 8.864529 -0.000000 -0.000000
Spine 9.958799 -5.819651 0.344249
RightShoulder -5.967508 -17.167802 -22.992964
RightArm 9.992927 25.480906 42.810814
RightForeArm 4.358898 -0.000000 29.425385
RightHand 3.692339 0.000000 -5.879364
RightHandThumb1 -24.326973 -0.000000 -32.862282
LeftShoulder -27.939455 35.169555 10.280004
LeftArm 45.391991 -49.253801 -62.815932
LeftForeArm 29.630743 -0.000000 10.401983
LeftHand -19.118913 -0.000000 0.503824
LeftHandThumb1 -26.253704 0.000000 33.147579
Head 2.109187 18.612536 -3.185468
448
root -0.055373 34.330033 2.849974 -0.105167 -5.855019 -1.278297
RightUpLeg 3.613122 -8.668112 -20.685103
RightLeg -6.749455 -0.000000 0.000000
RightFoot -2.922357 -17.839184 31.128979
RightToeBase 15.364301 -0.000000 -0.000000
LeftUpLeg 7.755660 10.561748 26.537908
LeftLeg -1.877532 -0.000000 0.000000
LeftFoot -3.379372 9.830969 -35.528683
LeftToeBase 8.931780 -0.000000 -0.000000
Spine 10.062166 -5.864375 0.156792
RightShoulder -5.976531 -17.105352 -23.041079
RightArm 9.804545 25.618922 42.784535
RightForeArm 4.520219 -0.000000 29.374120
RightHand 3.810868 -0.000000 -6.083947
RightHandThumb1 -24.326973 -0.000000 -32.862282
LeftShoulder -27.979725 35.187970 10.280312
LeftArm 45.331593 -49.224066 -62.566740
LeftForeArm 29.673293 -0.000000 10.327392
LeftHand -19.001088 -0.000000 0.549070
LeftHandThumb1 -26.253704 0.000000 33.147579
Head 2.141809 18.797993 -3.247333
449
root -0.105732 34.330749 2.820884 0.049035 -5.843265 -1.571979
RightUpLeg 3.472504 -8.594998 -20.286018
RightLeg -6.769107 -0.000000 0.000000
RightFoot -2.986334 -17.882246 31.169919
RightToeBase 15.298233 -0.000000 -0.000000
LeftUpLeg 7.554336 10.657262 26.893966
LeftLeg -1.796485 -0.000000 0.000000
LeftFoot -3.331234 9.802528 -35.565062
LeftToeBase 8.947107 -0.000000 -0.000000
Spine 10.123366 -5.889431 -0.055491
RightShoulder -6.025897 -17.137300 -23.086167
RightArm 9.786443 25.952297 42.872902
RightForeArm 4.492619 -0.000000 29.295637
RightHand 3.802901 -0.000000 -6.112807
RightHandThumb1 -24.326973 -0.000000 -32.862282
LeftShoulder -28.029200 35.261990 10.276777
LeftArm 45.335387 -49.222788 -62.411886
LeftForeArm 29.764200 -0.000000 10.277588
LeftHand -18.919518 -0.000000 0.565983
LeftHandThumb1 -26.253704 0.000000 33.147579
Head 2.191142 19.035501 -3.269338
450
root -0.160919 34.331803 2.791393 0.179829 -5.784823 -1.919307
RightUpLeg 3.384841 -8.561575 -19.834970
RightLeg -6.793952 -0.000000 0.000000
RightFoot -3.010854 -17.969486 31.179545
RightToeBase 15.274967 -0.000000 -0.000000
LeftUpLeg 7.359701 10.695092 27.313500
LeftLeg -1.721135 -0.000000 0.000000
LeftFoot -3.279046 9.772030 -35.610320
LeftToeBase 8.948441 -0.000000 -0.000000
Spine 10.231636 -5.967666 -0.219134
RightShoulder -6.047942 -17.089669 -23.149836
RightArm 9.657983 26.206001 42.887464
RightForeArm 4.679889 -0.000000 29.212097
RightHand 3.840044 -0.000000 -6.121769
RightHandThumb1 -24.326973 -0.000000 -32.862282
LeftShoulder -28.017144 35.202617 10.310919
LeftArm 45.066067 -49.150232 -61.968567
LeftForeArm 29.778214 -0.000000 10.209749
LeftHand -18.925590 -0.000000 0.642154
LeftHandThumb1 -26.253704 0.000000 33.147579
Head 2.218427 19.156827 -3.367663
